<svg width="313" height="61" viewBox="0 0 313 61" fill="none" xmlns="http://www.w3.org/2000/svg">
<path d="M0.53125 12.6541V1.09092H50.3221V12.6541H32.4595V60H18.4226V12.6541H0.53125Z" fill="black"/>
<path d="M57.2758 60V1.09092H71.5141V24.7351H94.7268V1.09092H108.936V60H94.7268V36.3271H71.5141V60H57.2758Z" fill="black"/>
<path d="M117.868 60V1.09092H158.943V12.6541H132.106V24.7351H156.843V36.3271H132.106V48.4368H158.943V60H117.868Z" fill="black"/>
<path d="M167.86 1.09092H185.492L200.45 37.5639H201.14L216.097 1.09092H233.73V60H219.865V23.8146H219.377L205.225 59.6261H196.365L182.213 23.6133H181.724V60H167.86V1.09092Z" fill="black"/>
<path d="M256.849 1.09092V60H242.611V1.09092H256.849Z" fill="black"/>
<path d="M297.63 18.7521C297.438 16.6428 296.584 15.0032 295.07 13.8335C293.574 12.6445 291.436 12.0501 288.655 12.0501C286.814 12.0501 285.28 12.2898 284.053 12.7692C282.826 13.2486 281.905 13.9102 281.291 14.7539C280.678 15.5785 280.361 16.5277 280.342 17.6016C280.304 18.4837 280.476 19.2603 280.86 19.9315C281.263 20.6026 281.838 21.1971 282.586 21.7149C283.353 22.2134 284.273 22.6545 285.347 23.038C286.421 23.4215 287.629 23.7571 288.971 24.0448L294.034 25.1953C296.949 25.8281 299.518 26.6719 301.743 27.7266C303.986 28.7813 305.866 30.0373 307.381 31.4947C308.915 32.9521 310.075 34.63 310.861 36.5284C311.647 38.4269 312.05 40.5554 312.069 42.9141C312.05 46.6342 311.11 49.8271 309.25 52.4926C307.39 55.158 304.715 57.2003 301.225 58.6193C297.754 60.0384 293.564 60.7479 288.655 60.7479C283.727 60.7479 279.431 60.0096 275.769 58.533C272.106 57.0565 269.258 54.8129 267.226 51.8022C265.193 48.7916 264.148 44.9851 264.09 40.3828H277.725C277.84 42.2813 278.348 43.8633 279.249 45.1289C280.15 46.3945 281.387 47.3534 282.96 48.0053C284.551 48.6573 286.392 48.9833 288.483 48.9833C290.4 48.9833 292.03 48.7244 293.372 48.2067C294.734 47.6889 295.779 46.9698 296.508 46.0494C297.236 45.1289 297.61 44.0742 297.63 42.8853C297.61 41.7731 297.265 40.8239 296.594 40.0377C295.923 39.2323 294.887 38.5419 293.487 37.9666C292.107 37.3722 290.343 36.8257 288.195 36.3271L282.039 34.8889C276.938 33.7191 272.921 31.8303 269.987 29.2223C267.053 26.5952 265.596 23.0476 265.615 18.5796C265.596 14.9361 266.574 11.7433 268.549 9.00108C270.524 6.25889 273.257 4.12075 276.747 2.58666C280.237 1.05257 284.216 0.285522 288.684 0.285522C293.248 0.285522 297.208 1.06216 300.563 2.61542C303.938 4.14951 306.556 6.30683 308.416 9.08737C310.276 11.8679 311.225 15.0895 311.264 18.7521H297.63Z" fill="black"/>
<path fill-rule="evenodd" clip-rule="evenodd" d="M32.4595 31H18.4226V12.6541H0.53125V1.09092H50.3221V12.6541H32.4595V31ZM108.936 31H57.2758V1.09092H71.5141V24.7351H94.7268V1.09092H108.936V31ZM156.843 31H117.868V1.09092H158.943V12.6541H132.106V24.7351H156.843V31ZM181.724 31H167.86V1.09092H185.492L197.758 31H185.116L182.213 23.6133H181.724V31ZM219.865 31V23.8146H219.377L216.537 31H203.832L216.097 1.09092H233.73V31H219.865ZM256.849 31H242.611V1.09092H256.849V31ZM306.844 31H272.324C271.481 30.4501 270.702 29.8575 269.987 29.2223C267.053 26.5952 265.596 23.0476 265.615 18.5796C265.596 14.9361 266.574 11.7433 268.549 9.00108C270.524 6.25889 273.257 4.12075 276.747 2.58666C280.237 1.05257 284.216 0.285522 288.684 0.285522C293.248 0.285522 297.208 1.06216 300.563 2.61542C303.938 4.14951 306.556 6.30683 308.416 9.08737C310.276 11.8679 311.225 15.0895 311.264 18.7521H297.63C297.438 16.6428 296.584 15.0032 295.07 13.8335C293.574 12.6445 291.436 12.0501 288.655 12.0501C286.814 12.0501 285.28 12.2898 284.053 12.7692C282.826 13.2486 281.905 13.9102 281.291 14.7539C280.678 15.5785 280.361 16.5277 280.342 17.6016C280.304 18.4837 280.476 19.2603 280.86 19.9315C281.263 20.6026 281.838 21.1971 282.586 21.7149C283.353 22.2134 284.273 22.6545 285.347 23.038C286.421 23.4215 287.629 23.7571 288.971 24.0448L294.034 25.1953C296.949 25.8281 299.518 26.6719 301.743 27.7266C303.728 28.66 305.429 29.7512 306.844 31Z" fill="#E73B37"/>
</svg>
